{"title":"Inception 2010 CAM XviD.FEEL-FREE","uid":5708891,"size":1317890152,"categoryP":"video","categoryS":"movies","magnet":"?xt=urn:btih:2e46c52d70985348c9035caa9e7421faaad30421&amp;dn=Inception+2010+CAM+XviD.FEEL-FREE&amp;tr=udp%3A%2F%2Ftracker.openbittorrent.com%3A80&amp;tr=udp%3A%2F%2Fopen.demonii.com%3A1337&amp;tr=udp%3A%2F%2Ftracker.coppersurfer.tk%3A6969&amp;tr=udp%3A%2F%2Fexodus.desync.com%3A6969","seeders":0,"leechers":1,"uploader":"hiest","files":8,"time":1279808909,"description":"Genre:Drama | Mystery | Sci-Fi | Thriller\nLanguage:English\nIMDb:http://www.imdb.com/title/tt1375666/\nSource:TA.Thanks \nEncoder: Tony2\n............................................\nGeneral\nComplete name : Inception 2010 CAM XviD.FEEL-FREE\nFormat : AVI\nFormat/Info : Audio Video Interleave\nFormat profile : OpenDML\nFile size : 1.23 GiB\n.............................................\nVideo\nFormat : xvid\nCodec ID : xvid\nBit rate : 502 Kbps\nWidth : 644 pixels\nHeight : 302 pixels\nDisplay aspect ratio : 2.2:1\nFrame rate : 29.970 fps\nResolution : 24 bits\nBits/(Pixel*Frame) : 0.086\nStream size : 1.09 GiB (89%)\n.............................................\nAudio\nID : 1\nFormat : MPEG Audio\nFormat version : Version 1\nFormat profile : Layer 3\nFormat settings, Mode : Joint stereo / MS Stereo\nCodec ID : 55\nCodec ID/Hint : MP3\nDuration : 2h 10mn\nBit rate mode : Constant\nBit rate : 128 Kbps\nChannel(s) : 2 channels\nSampling rate : 48.0 KHz\nResolution : 16 bits\nStream size : 120 MiB (10%)\nAlignment : Aligned on interleaves\nInterleave, duration : 24 ms (0.72 video frame)\nInterleave, preload duration : 24 ms\n.............................................\nPlot:\nIn a world where technology exists to enter the human mind through dream invasion, a highly skilled thief is given a final chance at redemption which involves executing his toughest job till date, Inception\n...................................................\nScreenshots\n &lt;a href=&quot;\nhttp://postimg.com/image/19000/18235.jpg&quot; rel=&quot;nofollow&quot; target=&quot;_NEW&quot;&gt;\nhttp://postimg.com/image/19000/18235.jpg&lt;/a&gt;\n &lt;a href=&quot;\nhttp://postimg.com/image/19000/18236.jpg&quot; rel=&quot;nofollow&quot; target=&quot;_NEW&quot;&gt;\nhttp://postimg.com/image/19000/18236.jpg&lt;/a&gt;\n &lt;a href=&quot;\nhttp://postimg.com/image/19000/18237.jpg&quot; rel=&quot;nofollow&quot; target=&quot;_NEW&quot;&gt;\nhttp://postimg.com/image/19000/18237.jpg&lt;/a&gt;\n\n........................................................","torrent":{"xt":"urn:btih:2e46c52d70985348c9035caa9e7421faaad30421","amp;dn":"Inception+2010+CAM+XviD.FEEL-FREE","amp;tr":["udp%3A%2F%2Ftracker.openbittorrent.com%3A80","udp%3A%2F%2Fopen.demonii.com%3A1337","udp%3A%2F%2Ftracker.coppersurfer.tk%3A6969","udp%3A%2F%2Fexodus.desync.com%3A6969"],"infoHash":"2e46c52d70985348c9035caa9e7421faaad30421","infoHashBuffer":{"type":"Buffer","data":[46,70,197,45,112,152,83,72,201,3,92,170,158,116,33,250,170,211,4,33]},"announce":[],"urlList":[]}}